<svg width="105" height="86" viewBox="0 0 105 86" fill="none" xmlns="http://www.w3.org/2000/svg">
<path d="M13.685 41.3318C14.0843 41.7318 14.5591 42.0484 15.0818 42.2634C15.6045 42.4784 16.1647 42.5875 16.7299 42.5843C17.2951 42.5811 17.854 42.4656 18.3742 42.2447C18.8944 42.0237 19.3656 41.7016 19.7603 41.2971L21.537 39.4771V77.2768C21.537 81.8788 25.2636 85.6055 29.87 85.6055H74.174C78.776 85.6055 82.507 81.8788 82.507 77.2768V39.4815L84.327 41.3015C85.107 42.0815 86.2337 42.5581 87.3603 42.5581C88.5303 42.5581 89.6136 42.0815 90.437 41.3015L102.744 28.9471C104.434 27.2571 104.434 24.4838 102.744 22.7938L81.2503 1.25712C80.427 0.477122 79.3436 0.000455809 78.1736 0.000455809H68.9306C68.3242 -0.0106243 67.7313 0.180578 67.2456 0.543883C66.7599 0.907188 66.409 1.4219 66.2483 2.00679C65.4512 5.18274 63.6167 8.00172 61.0356 10.0168C58.4546 12.0318 55.2748 13.1276 52.0003 13.1305C48.7327 13.1203 45.5618 12.0209 42.9891 10.0062C40.4164 7.99157 38.5889 5.17667 37.7957 2.00679C37.6335 1.42309 37.2821 0.909772 36.7966 0.547421C36.3111 0.185069 35.719 -0.00579676 35.1133 0.00478883H25.8703C24.7326 0.00487092 23.6414 0.456905 22.837 1.26146L1.30031 22.7981C0.888856 23.198 0.561775 23.6762 0.338427 24.2047C0.115079 24.7332 0 25.3011 0 25.8748C0 26.4485 0.115079 27.0164 0.338427 27.5449C0.561775 28.0733 0.888856 28.5516 1.30031 28.9515L13.685 41.3318Z" fill="#263669"/>
</svg>
