<svg width="105" height="86" viewBox="0 0 105 86" fill="none" xmlns="http://www.w3.org/2000/svg">
<path d="M68.9219 0.5H78.1738C79.1405 0.500047 80.0474 0.869354 80.7656 1.49219L80.9062 1.62012L102.39 23.1475C103.884 24.6422 103.884 27.099 102.39 28.5938V28.5947L90.0928 40.9385C89.3541 41.6382 88.3913 42.0586 87.3604 42.0586C86.3679 42.0586 85.368 41.6354 84.6807 40.9482L82.0068 38.2744V77.2764C82.0068 81.6019 78.5 85.1055 74.1738 85.1055H29.8701C25.5398 85.1055 22.0371 81.6021 22.0371 77.2764V38.249L21.1787 39.1279L19.4023 40.9482C19.0539 41.3052 18.6379 41.5891 18.1787 41.7842C17.7194 41.9793 17.2255 42.0811 16.7266 42.084C16.2279 42.0868 15.7337 41.9905 15.2725 41.8008C14.811 41.611 14.3916 41.3316 14.0391 40.9785H14.0381L1.65332 28.5977H1.6543L1.64844 28.5928C1.2851 28.2397 0.996104 27.8173 0.798828 27.3506C0.601538 26.8838 0.500028 26.3818 0.5 25.875C0.5 25.3682 0.60154 24.8663 0.798828 24.3994C0.996066 23.9327 1.28416 23.5094 1.64746 23.1562L1.64844 23.1572L23.1904 1.61523C23.9011 0.90451 24.8651 0.505017 25.8701 0.504883H35.1221C35.6169 0.496237 36.1004 0.652263 36.4971 0.948242C36.8938 1.24431 37.181 1.66371 37.3135 2.14062V2.13965C38.1353 5.4126 40.0237 8.31864 42.6807 10.3994C45.3409 12.4826 48.6202 13.6203 51.999 13.6309H52.001C55.3867 13.6279 58.675 12.4947 61.3438 10.4111C64.0095 8.32992 65.9047 5.419 66.7305 2.13965C66.8617 1.66194 67.1482 1.24109 67.5449 0.944336C67.9417 0.647571 68.4265 0.490949 68.9219 0.5Z" fill="white" stroke="#19242F"/>
</svg>
